<svg height="512" viewBox="0 0 24 24" width="512" xmlns="http://www.w3.org/2000/svg"><g id="Layer_2" data-name="Layer 2"><g fill="#0db561"><rect height="17.5" rx="1.75" width="21.5" x="1.25" y="5.25"/><path d="m12 5.75a.74.74 0 0 1 -.53-.22l-3-3a.75.75 0 0 1 1.06-1.06l2.47 2.47 2.47-2.47a.75.75 0 0 1 1.06 1.06l-3 3a.74.74 0 0 1 -.53.22z"/><path d="m15 6.75h-6a.76.76 0 0 1 -.75-.75 1.76 1.76 0 0 1 1.75-1.75h4a1.76 1.76 0 0 1 1.75 1.75.76.76 0 0 1 -.75.75z"/></g><rect fill="#fff" height="12.5" rx=".75" width="16.5" x="3.75" y="7.75"/></g></svg>